# xmcd CD database file
#
# Track frame offsets:
#	150
#	12660
#	28574
#	41663
#	57301
#	71039
#	86677
#	102674
#	121656
#
# Disc length: 1812 seconds
#
# Revision: 0
# Processed by: cddbd v1.5.2PL0 Copyright (c) Steve Scherf et al.
# Submitted via: CDex 1.51
#
DISCID=79071209
DTITLE=Roger Wade and Jan Mohr - Downsized
DYEAR=2015
DGENRE=Blues
TTITLE0=Roger Mohr Boogie
TTITLE1=When I Get Drunk
TTITLE2=Gonna Find My Baby
TTITLE3=Nice To Me
TTITLE4=Whisky-Drinking Woman: Islay View
TTITLE5=Wait A While
TTITLE6=Whisky Tonight
TTITLE7=My Backscratcher
TTITLE8=I`m Satisfied
EXTD=YEAR: 2015
EXTT0=
EXTT1=
EXTT2=
EXTT3=
EXTT4=
EXTT5=
EXTT6=
EXTT7=
EXTT8=
PLAYORDER=
